<svg xmlns="http://www.w3.org/2000/svg" width="48" height="48" viewBox="0 0 48 48" fill="none">
<rect width="48" height="48" rx="24" fill="url(#paint0_linear_19_114)"/>
<path d="M16.4659 35.16C16.0605 35.16 15.7192 35.0213 15.4419 34.744C15.1645 34.4667 15.0259 34.1253 15.0259 33.72V13.976C15.0259 13.5707 15.1645 13.2293 15.4419 12.952C15.7192 12.6533 16.0605 12.504 16.4659 12.504C16.8712 12.504 17.2125 12.6533 17.4899 12.952C17.7885 13.2293 17.9379 13.5707 17.9379 13.976V22.488H30.0659V13.976C30.0659 13.5707 30.2045 13.2293 30.4819 12.952C30.7592 12.6533 31.1005 12.504 31.5059 12.504C31.9112 12.504 32.2525 12.6533 32.5299 12.952C32.8285 13.2293 32.9779 13.5707 32.9779 13.976V33.72C32.9779 34.1253 32.8285 34.4667 32.5299 34.744C32.2525 35.0213 31.9112 35.16 31.5059 35.16C31.1005 35.16 30.7592 35.0213 30.4819 34.744C30.2045 34.4667 30.0659 34.1253 30.0659 33.72V25.208H17.9379V33.72C17.9379 34.1253 17.7885 34.4667 17.4899 34.744C17.2125 35.0213 16.8712 35.16 16.4659 35.16Z" fill="white"/>
<defs>
<linearGradient id="paint0_linear_19_114" x1="24" y1="0" x2="24" y2="48" gradientUnits="userSpaceOnUse">
<stop stop-color="#137E7B"/>
<stop offset="1" stop-color="#BA8A19" stop-opacity="0"/>
</linearGradient>
</defs>
</svg>