<svg xmlns="http://www.w3.org/2000/svg" width="32" height="32" viewBox="0 0 32 32" fill="none">
<rect width="32" height="32" rx="16" fill="#E2E3E3"/>
<path d="M9.908 24.12C9.604 24.12 9.348 24.016 9.14 23.808C8.932 23.6 8.828 23.344 8.828 23.04V8.232C8.828 7.928 8.932 7.672 9.14 7.464C9.348 7.24 9.604 7.128 9.908 7.128C10.212 7.128 10.468 7.24 10.676 7.464C10.9 7.672 11.012 7.928 11.012 8.232V14.616H20.108V8.232C20.108 7.928 20.212 7.672 20.42 7.464C20.628 7.24 20.884 7.128 21.188 7.128C21.492 7.128 21.748 7.24 21.956 7.464C22.18 7.672 22.292 7.928 22.292 8.232V23.04C22.292 23.344 22.18 23.6 21.956 23.808C21.748 24.016 21.492 24.12 21.188 24.12C20.884 24.12 20.628 24.016 20.42 23.808C20.212 23.6 20.108 23.344 20.108 23.04V16.656H11.012V23.04C11.012 23.344 10.9 23.6 10.676 23.808C10.468 24.016 10.212 24.12 9.908 24.12Z" fill="#161B20"/>
</svg>