<svg xmlns="http://www.w3.org/2000/svg" width="56" height="56" viewBox="0 0 56 56" fill="none">
<circle cx="28" cy="28" r="28" fill="#DBDBDB"/>
<path d="M21.32 41C20.8293 41 20.4027 40.8187 20.04 40.456C19.6987 40.0933 19.528 39.6667 19.528 39.176V19.464C19.528 18.9733 19.6987 18.5467 20.04 18.184C20.4027 17.8213 20.8293 17.64 21.32 17.64H22.184C22.6747 17.64 23.1013 17.8213 23.464 18.184C23.8267 18.5467 24.008 18.9733 24.008 19.464V26.728C24.008 26.8987 24.0933 26.984 24.264 26.984H32.264C32.4347 26.984 32.52 26.8987 32.52 26.728V19.464C32.52 18.9733 32.7013 18.5467 33.064 18.184C33.4267 17.8213 33.8533 17.64 34.344 17.64H35.208C35.6987 17.64 36.1147 17.8213 36.456 18.184C36.8187 18.5467 37 18.9733 37 19.464V39.176C37 39.6667 36.8187 40.0933 36.456 40.456C36.1147 40.8187 35.6987 41 35.208 41H34.344C33.8533 41 33.4267 40.8187 33.064 40.456C32.7013 40.0933 32.52 39.6667 32.52 39.176V30.696C32.52 30.504 32.4347 30.408 32.264 30.408H24.264C24.0933 30.408 24.008 30.504 24.008 30.696V39.176C24.008 39.6667 23.8267 40.0933 23.464 40.456C23.1013 40.8187 22.6747 41 22.184 41H21.32Z" fill="#2A2929"/>
</svg>